<svg width="257" height="133" viewBox="0 0 257 133" fill="none" xmlns="http://www.w3.org/2000/svg">
<path d="M221.074 15.5911C224.174 19.2599 224.756 22.0562 223.535 28.3245L224.977 29.631L181.33 77.5882L183.718 70.1258C178.282 61.2924 178.07 56.0662 183.736 46.1611C176.909 38.2411 176.352 34.1316 179.225 27.1931C184.574 22.7806 190.203 22.9378 205.162 28.1241C209.929 24.4161 213.018 23.7275 219.563 25.9486C220.232 23.1782 219.891 21.4214 217.789 17.864C218.265 15.8828 218.971 15.377 221.074 15.5911Z" fill="white" fill-opacity="0.2"/>
<path d="M192.023 29.2948C202.358 31.6084 209.179 34.5088 209.509 37.6185C208.293 40.5476 206.759 41.8465 202.547 43.5609C193.84 46.9646 190.839 46.5297 186.697 44.2466C181.573 39.3247 181.031 36.1225 181.87 30.0684C183.588 28.428 185.646 28.1603 192.023 29.2948Z" fill="#000409"/>
<path d="M201.918 55.0686L208.538 47.7659L206.547 46.4863C202.881 48.3403 200.925 49.0174 197.531 49.8667C198.054 51.1958 199.125 52.3995 201.918 55.0686Z" fill="#000409"/>
<path d="M194.776 62.9479C190.762 59.3213 189.072 56.755 186.777 51.4961C184.164 54.7959 183.625 57.1935 185.04 62.8746C185.828 65.0524 186.442 66.3072 189.376 68.9054L194.776 62.9479Z" fill="#000409"/>
<path d="M239.216 32.1115C235.273 29.3705 232.434 29.0536 226.308 30.8581L224.872 29.5459L181.229 77.5064L188.434 74.4273C197.739 79.009 202.962 78.729 212.291 72.1573C220.817 78.2101 224.961 78.3785 231.599 74.8661C235.489 69.1255 234.804 63.5369 228.234 49.1308C231.478 44.0367 231.873 40.8964 229.047 34.59C231.742 33.6627 233.523 33.8374 237.262 35.5963C239.19 34.9361 239.627 34.1853 239.216 32.1115Z" fill="white" fill-opacity="0.2"/>
<path d="M228.25 62.1785C224.976 52.1067 221.447 45.589 218.32 45.5521C215.518 47.0386 214.369 48.6878 213.058 53.0416C210.488 62.0304 211.203 64.9768 213.865 68.8863C219.247 73.5254 222.486 73.7633 228.434 72.3598C229.906 70.4949 229.979 68.4204 228.25 62.1785Z" fill="#000409"/>
<path d="M201.661 54.7493L208.309 47.4726L209.77 49.3344C208.269 53.1581 207.778 55.1698 207.252 58.6279C205.879 58.2322 204.58 57.2799 201.661 54.7493Z" fill="#000409"/>
<path d="M194.487 62.6005C198.475 66.2563 201.189 67.6972 206.64 69.4877C203.601 72.3993 201.264 73.1611 195.475 72.2865C193.233 71.7071 191.926 71.2136 189.064 68.5367L194.487 62.6005Z" fill="#000409"/>
<path d="M3.16897 80.9183C28.1564 89.7023 42.8237 91.8392 70.6448 88.6328M70.6448 88.6328C92.6201 81.2041 102.288 75.8719 115.149 64.4327C126.53 47.8327 130.005 39.0412 119.221 26.3845C109.505 22.6413 102.747 24.0721 87.387 35.5265C81.131 21.0884 77.4267 14.7211 69.9039 11.0193C58.3959 11.5633 53.6926 14.5623 49.8529 26.9567C45.199 46.8148 50.4594 60.549 70.6448 88.6328ZM70.6448 88.6328C102.08 116.646 118.366 127.196 141.33 122.723C161.314 119.737 169.569 113.261 175.539 87.4537" stroke="white" stroke-opacity="0.2" stroke-width="4" stroke-dasharray="12 12"/>
</svg>
