<svg width="430" height="95" viewBox="0 0 430 95" fill="none" xmlns="http://www.w3.org/2000/svg">
<g filter="url(#filter0_d_1156_801)">
<path d="M25.6118 12.6985C23.5595 14.123 20.6863 17.8981 25.6118 21.6019C26.3361 21.958 27.3502 23.0264 25.6118 24.451C25.6118 24.4588 25.6062 24.4666 25.5953 24.4748C25.5797 24.4864 25.553 24.4984 25.5159 24.5111C25.4187 24.5445 25.25 24.5831 25.0223 24.6353C22.6869 25.1712 14.1343 27.1331 12.5738 39.4087C12.2117 39.7648 11.4873 47.9559 12.5738 51.5173C12.5738 51.8734 16.1955 77.8713 30.6821 82.8572H74.1418C88.6284 77.8713 92.2501 51.8734 92.2501 51.5173C93.3366 47.9559 92.6122 39.7648 92.2501 39.4087C90.6897 27.1331 82.1371 25.1712 79.8016 24.6353C79.6159 24.5927 79.4694 24.5591 79.3689 24.5301C79.2667 24.5007 79.2121 24.4758 79.2121 24.451C77.4737 23.0264 78.4878 21.958 79.2121 21.6019C84.1376 17.8981 81.2644 14.123 79.2121 12.6985H25.6118Z" fill="white"/>
</g>
<g filter="url(#filter1_d_1156_801)">
<path d="M78.9764 10H46.1364C35.8261 15.253 44.6089 23.5076 44.9908 23.5076C42.3178 31.0118 46.1364 35.5144 46.1364 35.8896C51.6352 36.7901 55.301 40.5172 56.4466 42.2682V50.898C59.196 55.1004 63.9566 52.649 65.9931 50.898V43.769C67.8261 42.2682 70.0663 44.3944 70.9573 45.6451V60.6535C74.9287 66.6569 78.9764 63.1549 80.5039 60.6535C79.9947 54.9003 79.2819 43.4688 80.5039 43.769C80.5039 41.8929 83.5587 40.3921 84.3225 39.2665C90.8141 36.64 82.4132 23.1324 82.0313 23.5076C87.5301 13.9022 82.2859 10.5003 78.9764 10Z" fill="url(#paint0_linear_1156_801)"/>
<path d="M44.9909 47.1459C43.4634 46.2454 44.3544 43.2687 44.9909 41.8929C50.4897 37.0902 51.1006 43.3938 50.7187 47.1459C48.8094 49.0219 44.9909 47.5211 44.9909 47.1459Z" fill="url(#paint1_linear_1156_801)"/>
</g>
<path d="M119.355 12.4285H129.75V26.6107H161.623V12.4285H172.051V66.759H161.623V36.0308H129.75V66.759H119.355V12.4285Z" fill="white"/>
<path d="M183.069 46.2503C183.069 43.3073 183.626 40.5496 184.741 37.9774C185.878 35.4051 187.485 33.1573 189.562 31.2338C191.66 29.3104 194.185 27.7926 197.137 26.6802C200.11 25.5679 203.443 25.0117 207.138 25.0117C210.832 25.0117 214.155 25.5679 217.107 26.6802C220.08 27.7926 222.605 29.3104 224.681 31.2338C226.78 33.1573 228.387 35.4051 229.502 37.9774C230.639 40.5496 231.207 43.3073 231.207 46.2503C231.207 49.1934 230.639 51.9511 229.502 54.5233C228.387 57.0956 226.78 59.3434 224.681 61.2668C222.605 63.1903 220.08 64.7081 217.107 65.8205C214.155 66.9328 210.832 67.489 207.138 67.489C203.443 67.489 200.11 66.9328 197.137 65.8205C194.185 64.7081 191.66 63.1903 189.562 61.2668C187.485 59.3434 185.878 57.0956 184.741 54.5233C183.626 51.9511 183.069 49.1934 183.069 46.2503ZM193.267 46.2503C193.267 47.8957 193.573 49.4599 194.185 50.943C194.819 52.4029 195.726 53.7007 196.907 54.8362C198.109 55.9485 199.563 56.8407 201.268 57.5127C202.995 58.1616 204.952 58.486 207.138 58.486C209.324 58.486 211.27 58.1616 212.975 57.5127C214.702 56.8407 216.156 55.9485 217.336 54.8362C218.538 53.7007 219.446 52.4029 220.058 50.943C220.692 49.4599 221.009 47.8957 221.009 46.2503C221.009 44.605 220.692 43.0408 220.058 41.5577C219.446 40.0746 218.538 38.7769 217.336 37.6645C216.156 36.529 214.702 35.6368 212.975 34.988C211.27 34.3159 209.324 33.9799 207.138 33.9799C204.952 33.9799 202.995 34.3159 201.268 34.988C199.563 35.6368 198.109 36.529 196.907 37.6645C195.726 38.7769 194.819 40.0746 194.185 41.5577C193.573 43.0408 193.267 44.605 193.267 46.2503Z" fill="white"/>
<path d="M238.175 25.7417H247.881V29.2177C250.461 27.6651 252.92 26.576 255.259 25.9503C257.62 25.3246 259.927 25.0117 262.178 25.0117C265.129 25.0117 267.862 25.4752 270.376 26.4022C272.89 27.3059 275.065 28.6616 276.902 30.4691C278.738 32.2767 280.17 34.5361 281.197 37.2474C282.247 39.9355 282.771 43.0524 282.771 46.598V66.759H273.098V48.2665C273.098 46.0186 272.792 44.0141 272.18 42.2529C271.589 40.4685 270.726 38.9738 269.589 37.7688C268.474 36.5406 267.108 35.6137 265.49 34.988C263.894 34.3391 262.102 34.0147 260.112 34.0147C259.063 34.0147 257.981 34.1306 256.866 34.3623C255.773 34.594 254.691 34.93 253.62 35.3703C252.57 35.7875 251.554 36.3205 250.57 36.9693C249.586 37.595 248.69 38.3134 247.881 39.1245V66.759H238.175V25.7417Z" fill="white"/>
<path d="M292.871 46.1113C292.871 43.3305 293.407 40.6771 294.478 38.1512C295.549 35.6021 297.09 33.3542 299.102 31.4077C301.113 29.4611 303.572 27.9084 306.48 26.7498C309.409 25.5911 312.732 25.0117 316.448 25.0117C320.143 25.0117 323.466 25.6027 326.417 26.7845C329.39 27.9432 331.904 29.5422 333.959 31.5815C336.036 33.6207 337.621 36.0192 338.714 38.7769C339.829 41.5345 340.386 44.4892 340.386 47.6408C340.386 48.0347 340.375 48.4634 340.353 48.9269C340.353 49.3672 340.331 49.7727 340.288 50.1435H303.692C304.108 51.3717 304.774 52.4956 305.693 53.5153C306.633 54.5349 307.802 55.4155 309.201 56.1571C310.6 56.8986 312.218 57.478 314.054 57.8951C315.891 58.289 317.924 58.486 320.154 58.486C322.383 58.486 324.602 58.2427 326.81 57.756C329.018 57.2462 331.128 56.609 333.139 55.8442L336.418 63.7001C335.15 64.3258 333.861 64.8819 332.549 65.3686C331.259 65.832 329.904 66.226 328.483 66.5504C327.084 66.8517 325.608 67.0834 324.056 67.2456C322.526 67.4079 320.908 67.489 319.203 67.489C314.852 67.489 311.038 66.9328 307.758 65.8205C304.479 64.7081 301.736 63.1903 299.528 61.2668C297.32 59.3434 295.658 57.084 294.543 54.4886C293.429 51.8931 292.871 49.1007 292.871 46.1113ZM330.089 42.1139C329.74 40.9784 329.193 39.924 328.45 38.9507C327.729 37.9542 326.821 37.0968 325.728 36.3784C324.635 35.6368 323.367 35.0575 321.924 34.6404C320.482 34.2232 318.897 34.0147 317.17 34.0147C315.333 34.0147 313.661 34.2348 312.153 34.6751C310.644 35.1154 309.322 35.7064 308.185 36.4479C307.048 37.1895 306.097 38.0469 305.332 39.0202C304.589 39.9935 304.042 41.0247 303.692 42.1139H330.089Z" fill="white"/>
<path d="M352.672 81.7909C353.678 82.4861 354.771 83.1002 355.951 83.6332C357.132 84.1662 358.356 84.6065 359.624 84.9541C360.914 85.3017 362.225 85.5566 363.559 85.7189C364.892 85.9043 366.215 85.9969 367.526 85.9969C371.986 85.9969 375.418 84.9773 377.823 82.938C380.25 80.9219 381.463 67.9988 381.463 63.9434V62.553C380.61 63.1787 379.648 63.758 378.577 64.291C377.528 64.8008 376.391 65.2411 375.167 65.6119C373.965 65.9827 372.686 66.2723 371.33 66.4809C369.997 66.6663 368.641 66.759 367.264 66.759C364.313 66.759 361.668 66.3071 359.329 65.4033C357.011 64.4764 355.044 63.1323 353.426 61.3711C351.83 59.5868 350.606 57.3969 349.753 54.8014C348.901 52.206 348.475 49.2397 348.475 45.9027V25.7417H358.148V43.0524C358.148 48.0115 359.033 51.673 360.804 54.0367C362.597 56.3772 365.417 57.5475 369.264 57.5475C371.975 57.5475 374.369 57.0492 376.446 56.0528C378.544 55.0331 380.217 53.7354 381.463 52.1596V25.7417H391.169V62.0663C391.169 65.9827 390.645 79.265 389.595 82.1385C388.546 85.0352 387.016 87.4337 385.004 89.3339C383.015 91.2342 380.567 92.6478 377.659 93.5747C374.752 94.5248 407.997 94.9999 404.302 94.9999C400.695 94.9999 360.782 94.5944 357.656 93.7833C354.53 92.9722 351.666 91.8715 349.065 90.481L352.672 81.7909Z" fill="white"/>
<defs>
<filter id="filter0_d_1156_801" x="0" y="0.698486" width="104.824" height="94.1587" filterUnits="userSpaceOnUse" color-interpolation-filters="sRGB">
<feFlood flood-opacity="0" result="BackgroundImageFix"/>
<feColorMatrix in="SourceAlpha" type="matrix" values="0 0 0 0 0 0 0 0 0 0 0 0 0 0 0 0 0 0 127 0" result="hardAlpha"/>
<feOffset/>
<feGaussianBlur stdDeviation="6"/>
<feComposite in2="hardAlpha" operator="out"/>
<feColorMatrix type="matrix" values="0 0 0 0 1 0 0 0 0 1 0 0 0 0 1 0 0 0 0.5 0"/>
<feBlend mode="normal" in2="BackgroundImageFix" result="effect1_dropShadow_1156_801"/>
<feBlend mode="normal" in="SourceGraphic" in2="effect1_dropShadow_1156_801" result="shape"/>
</filter>
<filter id="filter1_d_1156_801" x="37.1406" y="6" width="53.6353" height="61.9683" filterUnits="userSpaceOnUse" color-interpolation-filters="sRGB">
<feFlood flood-opacity="0" result="BackgroundImageFix"/>
<feColorMatrix in="SourceAlpha" type="matrix" values="0 0 0 0 0 0 0 0 0 0 0 0 0 0 0 0 0 0 127 0" result="hardAlpha"/>
<feOffset/>
<feGaussianBlur stdDeviation="2"/>
<feComposite in2="hardAlpha" operator="out"/>
<feColorMatrix type="matrix" values="0 0 0 0 0 0 0 0 0 0 0 0 0 0 0 0 0 0 0.25 0"/>
<feBlend mode="normal" in2="BackgroundImageFix" result="effect1_dropShadow_1156_801"/>
<feBlend mode="normal" in="SourceGraphic" in2="effect1_dropShadow_1156_801" result="shape"/>
</filter>
<linearGradient id="paint0_linear_1156_801" x1="41.1406" y1="63.9683" x2="98.5539" y2="29.7781" gradientUnits="userSpaceOnUse">
<stop stop-color="#C49E4C"/>
<stop offset="0.355" stop-color="#FBEB90"/>
<stop offset="0.695" stop-color="#E2C871"/>
<stop offset="0.97" stop-color="#C7A14F"/>
</linearGradient>
<linearGradient id="paint1_linear_1156_801" x1="41.1406" y1="63.9683" x2="98.5539" y2="29.7781" gradientUnits="userSpaceOnUse">
<stop stop-color="#C49E4C"/>
<stop offset="0.355" stop-color="#FBEB90"/>
<stop offset="0.695" stop-color="#E2C871"/>
<stop offset="0.97" stop-color="#C7A14F"/>
</linearGradient>
</defs>
</svg>
