<svg width="218" height="244" viewBox="0 0 218 244" fill="none" xmlns="http://www.w3.org/2000/svg">
<path d="M90.0525 269.705L109.806 235.469L149.331 235.458L169.103 269.683L149.35 303.918L109.825 303.929L90.0525 269.705Z" fill="#000409"/>
<path d="M113.864 296.928L98.1354 269.702L113.849 242.468L145.291 242.46L161.02 269.685L145.307 296.919L113.864 296.928Z" stroke="white" stroke-opacity="0.05" stroke-width="14"/>
<path d="M90.0203 154.291L109.773 120.055L149.299 120.044L169.071 154.269L149.318 188.504L109.792 188.515L90.0203 154.291Z" fill="#000409"/>
<path d="M113.832 181.514L98.1032 154.288L113.817 127.054L145.259 127.045L160.988 154.271L145.274 181.505L113.832 181.514Z" stroke="white" stroke-opacity="0.05" stroke-width="14"/>
<path d="M138.249 183.526L158.002 149.291L197.528 149.28L217.3 183.504L197.547 217.739L158.021 217.75L138.249 183.526Z" fill="#000409"/>
<path d="M162.061 210.749L146.332 183.524L162.046 156.289L193.488 156.281L209.217 183.506L193.503 210.741L162.061 210.749Z" stroke="white" stroke-opacity="0.05" stroke-width="14"/>
<path d="M90.0364 211.998L109.79 177.762L149.315 177.751L169.087 211.976L149.334 246.211L109.809 246.222L90.0364 211.998Z" fill="#000409"/>
<path d="M113.848 239.221L98.1193 211.995L113.833 184.761L145.275 184.752L161.004 211.978L145.29 239.212L113.848 239.221Z" stroke="white" stroke-opacity="0.05" stroke-width="14"/>
<path d="M138.265 241.233L158.019 206.998L197.544 206.987L217.316 241.211L197.563 275.447L158.038 275.457L138.265 241.233Z" fill="#000409"/>
<path d="M162.077 268.456L146.348 241.231L162.062 213.997L193.504 213.988L209.233 241.213L193.519 268.448L162.077 268.456Z" stroke="white" stroke-opacity="0.05" stroke-width="14"/>
<path d="M90.0047 96.5836L109.758 62.3482L149.283 62.3373L169.055 96.5617L149.302 130.797L109.777 130.808L90.0047 96.5836Z" fill="#000409"/>
<path d="M113.816 123.807L98.0876 96.5814L113.801 69.3471L145.244 69.3384L160.972 96.564L145.259 123.798L113.816 123.807Z" stroke="white" stroke-opacity="0.05" stroke-width="14"/>
<path d="M138.233 125.819L157.986 91.5836L197.512 91.5726L217.284 125.797L197.531 160.032L158.005 160.043L138.233 125.819Z" fill="#000409"/>
<path d="M162.045 153.042L146.316 125.817L162.03 98.5825L193.472 98.5738L209.201 125.799L193.487 153.034L162.045 153.042Z" stroke="white" stroke-opacity="0.05" stroke-width="14"/>
<path d="M-18.9406 212.712L0.812542 178.476L40.3378 178.465L60.1099 212.69L40.3568 246.925L0.83149 246.936L-18.9406 212.712Z" fill="#000409"/>
<path d="M4.871 239.935L-10.8577 212.709L4.85593 185.475L36.2983 185.466L52.027 212.692L36.3134 239.926L4.871 239.935Z" stroke="white" stroke-opacity="0.05" stroke-width="14"/>
<path d="M29.2879 241.947L49.0411 207.712L88.5663 207.701L108.338 241.925L88.5853 276.16L49.06 276.171L29.2879 241.947Z" fill="#000409"/>
<path d="M53.0995 269.17L37.3708 241.945L53.0844 214.71L84.5268 214.702L100.256 241.927L84.5419 269.161L53.0995 269.17Z" stroke="white" stroke-opacity="0.05" stroke-width="14"/>
<path d="M-18.9729 97.2975L0.780316 63.0621L40.3056 63.0512L60.0777 97.2756L40.3246 131.511L0.799263 131.522L-18.9729 97.2975Z" fill="#000409"/>
<path d="M4.83878 124.521L-10.8899 97.2952L4.82371 70.061L36.2661 70.0523L51.9948 97.2778L36.2812 124.512L4.83878 124.521Z" stroke="white" stroke-opacity="0.05" stroke-width="14"/>
<path d="M29.2562 126.533L49.0093 92.2975L88.5346 92.2865L108.307 126.511L88.5536 160.746L49.0283 160.757L29.2562 126.533Z" fill="#000409"/>
<path d="M53.0678 153.756L37.3391 126.531L53.0527 99.2963L84.4951 99.2876L100.224 126.513L84.5102 153.747L53.0678 153.756Z" stroke="white" stroke-opacity="0.05" stroke-width="14"/>
<path d="M-18.9567 155.004L0.796429 120.769L40.3217 120.758L60.0938 154.983L40.3407 189.218L0.815376 189.229L-18.9567 155.004Z" fill="#000409"/>
<path d="M4.85489 182.228L-10.8738 155.002L4.83982 127.768L36.2822 127.759L52.0109 154.985L36.2973 182.219L4.85489 182.228Z" stroke="white" stroke-opacity="0.05" stroke-width="14"/>
<path d="M29.2723 184.24L49.0254 150.004L88.5507 149.994L108.323 184.218L88.5697 218.453L49.0444 218.464L29.2723 184.24Z" fill="#000409"/>
<path d="M53.0839 211.463L37.3552 184.238L53.0688 157.003L84.5112 156.995L100.24 184.22L84.5263 211.454L53.0839 211.463Z" stroke="white" stroke-opacity="0.05" stroke-width="14"/>
<path d="M-18.989 39.5904L0.764202 5.35507L40.2895 5.34413L60.0616 39.5686L40.3084 73.8039L0.78315 73.8149L-18.989 39.5904Z" fill="#000409"/>
<path d="M4.82266 66.8138L-10.9061 39.5882L4.80759 12.354L36.25 12.3452L51.9787 39.5708L36.265 66.805L4.82266 66.8138Z" stroke="white" stroke-opacity="0.05" stroke-width="14"/>
<path d="M29.24 68.8258L48.9932 34.5904L88.5185 34.5795L108.291 68.8039L88.5374 103.039L49.0122 103.05L29.24 68.8258Z" fill="#000409"/>
<path d="M53.0517 96.0491L37.3229 68.8236L53.0366 41.5893L84.479 41.5806L100.208 68.8061L84.494 96.0404L53.0517 96.0491Z" stroke="white" stroke-opacity="0.05" stroke-width="14"/>
</svg>
