<svg width="195" height="53" viewBox="0 0 195 53" fill="none" xmlns="http://www.w3.org/2000/svg">
<g filter="url(#filter0_d_3111_1236)">
<path d="M17.9592 12.1111C17.0607 12.6977 15.8028 14.2521 17.9592 15.7772C18.2763 15.9238 18.7203 16.3638 17.9592 16.9503C17.9592 16.9536 17.9568 16.9568 17.952 16.9602C17.9452 16.9649 17.9335 16.9699 17.9173 16.9751C17.8747 16.9889 17.8009 17.0048 17.7011 17.0262C16.6787 17.2469 12.9344 18.0548 12.2512 23.1094C12.0927 23.256 11.7756 26.6289 12.2512 28.0953C12.2512 28.2419 13.8368 38.947 20.179 41H39.2056C45.5479 38.947 47.1334 28.2419 47.1334 28.0953C47.6091 26.6289 47.292 23.256 47.1334 23.1094C46.4503 18.0548 42.7059 17.2469 41.6835 17.0262C41.6022 17.0087 41.538 16.9949 41.494 16.9829C41.4493 16.9708 41.4254 16.9606 41.4254 16.9503C40.6643 16.3638 41.1083 15.9238 41.4254 15.7772C43.5818 14.2521 42.3239 12.6977 41.4254 12.1111H17.9592Z" fill="white"/>
</g>
<g filter="url(#filter1_d_3111_1236)">
<path d="M41.3223 11H26.945C22.4311 13.163 26.2762 16.562 26.4434 16.562C25.2732 19.6519 26.945 21.5059 26.945 21.6604C29.3523 22.0312 30.9572 23.5659 31.4588 24.2869V27.8404C32.6624 29.5707 34.7466 28.5614 35.6382 27.8404V24.9049C36.4407 24.2869 37.4215 25.1624 37.8115 25.6774V31.8573C39.5502 34.3293 41.3223 32.8873 41.991 31.8573C41.7681 29.4883 41.456 24.7813 41.991 24.9049C41.991 24.1324 43.3284 23.5144 43.6628 23.0509C46.5048 21.9694 42.8269 16.4075 42.6597 16.562C45.0671 12.6068 42.7712 11.206 41.3223 11Z" fill="url(#paint0_linear_3111_1236)"/>
<path d="M26.4435 26.2954C25.7747 25.9246 26.1648 24.6989 26.4435 24.1324C28.8508 22.1548 29.1183 24.7504 28.9511 26.2954C28.1152 27.0679 26.4435 26.4499 26.4435 26.2954Z" fill="url(#paint1_linear_3111_1236)"/>
</g>
<path d="M59 12H63.5509V17.8397H77.505V12H82.0703V34.3714H77.505V21.7186H63.5509V34.3714H59V12Z" fill="white"/>
<path d="M86.8939 25.9267C86.8939 24.7148 87.138 23.5793 87.6261 22.5201C88.1237 21.461 88.8272 20.5354 89.7364 19.7434C90.6552 18.9514 91.7606 18.3264 93.0527 17.8684C94.3543 17.4104 95.8138 17.1813 97.4313 17.1813C99.0487 17.1813 100.503 17.4104 101.796 17.8684C103.097 18.3264 104.203 18.9514 105.112 19.7434C106.031 20.5354 106.734 21.461 107.222 22.5201C107.72 23.5793 107.969 24.7148 107.969 25.9267C107.969 27.1385 107.72 28.274 107.222 29.3332C106.734 30.3923 106.031 31.3179 105.112 32.1099C104.203 32.9019 103.097 33.5269 101.796 33.9849C100.503 34.443 99.0487 34.672 97.4313 34.672C95.8138 34.672 94.3543 34.443 93.0527 33.9849C91.7606 33.5269 90.6552 32.9019 89.7364 32.1099C88.8272 31.3179 88.1237 30.3923 87.6261 29.3332C87.138 28.274 86.8939 27.1385 86.8939 25.9267ZM91.3587 25.9267C91.3587 26.6041 91.4926 27.2482 91.7606 27.8589C92.0382 28.4601 92.4354 28.9944 92.9522 29.462C93.4786 29.92 94.115 30.2874 94.8615 30.5641C95.6176 30.8313 96.4742 30.9649 97.4313 30.9649C98.3884 30.9649 99.2402 30.8313 99.9867 30.5641C100.743 30.2874 101.379 29.92 101.896 29.462C102.422 28.9944 102.82 28.4601 103.088 27.8589C103.365 27.2482 103.504 26.6041 103.504 25.9267C103.504 25.2492 103.365 24.6051 103.088 23.9944C102.82 23.3837 102.422 22.8493 101.896 22.3913C101.379 21.9238 100.743 21.5564 99.9867 21.2892C99.2402 21.0125 98.3884 20.8741 97.4313 20.8741C96.4742 20.8741 95.6176 21.0125 94.8615 21.2892C94.115 21.5564 93.4786 21.9238 92.9522 22.3913C92.4354 22.8493 92.0382 23.3837 91.7606 23.9944C91.4926 24.6051 91.3587 25.2492 91.3587 25.9267Z" fill="white"/>
<path d="M111.019 17.4819H115.269V18.9132C116.398 18.2739 117.475 17.8254 118.499 17.5678C119.532 17.3102 120.542 17.1813 121.528 17.1813C122.82 17.1813 124.016 17.3722 125.117 17.7539C126.218 18.126 127.17 18.6842 127.974 19.4285C128.778 20.1728 129.405 21.1031 129.854 22.2196C130.314 23.3264 130.544 24.6099 130.544 26.0698V34.3714H126.308V26.7568C126.308 25.8312 126.174 25.0058 125.906 24.2806C125.648 23.5459 125.27 22.9304 124.772 22.4343C124.284 21.9285 123.686 21.5468 122.978 21.2892C122.279 21.022 121.494 20.8884 120.623 20.8884C120.164 20.8884 119.69 20.9362 119.202 21.0316C118.724 21.127 118.25 21.2654 117.781 21.4467C117.322 21.6184 116.877 21.8379 116.446 22.1051C116.015 22.3627 115.623 22.6585 115.269 22.9925V34.3714H111.019V17.4819Z" fill="white"/>
<path d="M134.965 25.8694C134.965 24.7244 135.2 23.6318 135.669 22.5917C136.138 21.5421 136.812 20.6165 137.693 19.815C138.573 19.0134 139.65 18.3741 140.923 17.897C142.205 17.4199 143.66 17.1813 145.287 17.1813C146.905 17.1813 148.359 17.4247 149.651 17.9113C150.953 18.3884 152.054 19.0468 152.953 19.8865C153.863 20.7262 154.556 21.7138 155.035 22.8493C155.523 23.9848 155.767 25.2015 155.767 26.4992C155.767 26.6614 155.762 26.8379 155.753 27.0288C155.753 27.2101 155.743 27.3771 155.724 27.5297H139.703C139.885 28.0355 140.176 28.4982 140.578 28.9181C140.99 29.3379 141.502 29.7005 142.115 30.0059C142.727 30.3112 143.435 30.5498 144.239 30.7215C145.043 30.8838 145.933 30.9649 146.909 30.9649C147.886 30.9649 148.857 30.8647 149.824 30.6643C150.79 30.4544 151.714 30.192 152.594 29.8771L154.03 33.1118C153.475 33.3695 152.91 33.5985 152.336 33.7989C151.771 33.9897 151.178 34.1519 150.556 34.2855C149.943 34.4096 149.297 34.505 148.618 34.5718C147.948 34.6386 147.24 34.672 146.493 34.672C144.589 34.672 142.918 34.443 141.483 33.9849C140.047 33.5269 138.846 32.9019 137.879 32.1099C136.913 31.3179 136.185 30.3876 135.697 29.3189C135.209 28.2502 134.965 27.1003 134.965 25.8694ZM151.259 24.2234C151.106 23.7558 150.867 23.3217 150.542 22.9209C150.226 22.5106 149.829 22.1575 149.35 21.8617C148.871 21.5564 148.316 21.3178 147.685 21.1461C147.053 20.9743 146.359 20.8884 145.603 20.8884C144.799 20.8884 144.067 20.9791 143.407 21.1604C142.746 21.3417 142.167 21.585 141.669 21.8904C141.172 22.1957 140.755 22.5488 140.421 22.9495C140.095 23.3503 139.856 23.7749 139.703 24.2234H151.259Z" fill="white"/>
<path d="M161.146 40.561C161.586 40.8473 162.065 41.1001 162.582 41.3196C163.098 41.5391 163.634 41.7204 164.189 41.8635C164.754 42.0066 165.328 42.1116 165.912 42.1784C166.496 42.2547 167.075 42.2929 167.649 42.2929C169.602 42.2929 171.104 41.8731 172.157 41.0333C173.219 40.2032 173.751 34.8819 173.751 33.212V32.6395C173.377 32.8971 172.956 33.1357 172.487 33.3552C172.028 33.5651 171.53 33.7464 170.994 33.8991C170.468 34.0517 169.908 34.171 169.315 34.2569C168.731 34.3332 168.137 34.3714 167.534 34.3714C166.242 34.3714 165.084 34.1853 164.06 33.8132C163.046 33.4315 162.184 32.8781 161.476 32.1529C160.777 31.4181 160.242 30.5164 159.868 29.4477C159.495 28.379 159.308 27.1576 159.308 25.7835V17.4819H163.543V24.6099C163.543 26.6519 163.931 28.1595 164.706 29.1328C165.491 30.0965 166.726 30.5784 168.41 30.5784C169.597 30.5784 170.645 30.3733 171.554 29.963C172.473 29.5431 173.205 29.0087 173.751 28.3599V17.4819H178V32.4391C178 34.0517 177.77 39.5209 177.311 40.7041C176.852 41.8969 176.182 42.8845 175.301 43.667C174.43 44.4494 173.358 45.0315 172.085 45.4132C170.812 45.8044 185.367 46 183.75 46C182.171 46 164.697 45.833 163.328 45.499C161.959 45.1651 160.706 44.7118 159.567 44.1393L161.146 40.561Z" fill="white"/>
<defs>
<filter id="filter0_d_3111_1236" x="0" y="0.111084" width="59.3848" height="52.8889" filterUnits="userSpaceOnUse" color-interpolation-filters="sRGB">
<feFlood flood-opacity="0" result="BackgroundImageFix"/>
<feColorMatrix in="SourceAlpha" type="matrix" values="0 0 0 0 0 0 0 0 0 0 0 0 0 0 0 0 0 0 127 0" result="hardAlpha"/>
<feOffset/>
<feGaussianBlur stdDeviation="6"/>
<feComposite in2="hardAlpha" operator="out"/>
<feColorMatrix type="matrix" values="0 0 0 0 1 0 0 0 0 1 0 0 0 0 1 0 0 0 0.5 0"/>
<feBlend mode="normal" in2="BackgroundImageFix" result="effect1_dropShadow_3111_1236"/>
<feBlend mode="normal" in="SourceGraphic" in2="effect1_dropShadow_3111_1236" result="shape"/>
</filter>
<filter id="filter1_d_3111_1236" x="20.7578" y="7" width="27.979" height="30.2222" filterUnits="userSpaceOnUse" color-interpolation-filters="sRGB">
<feFlood flood-opacity="0" result="BackgroundImageFix"/>
<feColorMatrix in="SourceAlpha" type="matrix" values="0 0 0 0 0 0 0 0 0 0 0 0 0 0 0 0 0 0 127 0" result="hardAlpha"/>
<feOffset/>
<feGaussianBlur stdDeviation="2"/>
<feComposite in2="hardAlpha" operator="out"/>
<feColorMatrix type="matrix" values="0 0 0 0 0 0 0 0 0 0 0 0 0 0 0 0 0 0 0.25 0"/>
<feBlend mode="normal" in2="BackgroundImageFix" result="effect1_dropShadow_3111_1236"/>
<feBlend mode="normal" in="SourceGraphic" in2="effect1_dropShadow_3111_1236" result="shape"/>
</filter>
<linearGradient id="paint0_linear_3111_1236" x1="24.7578" y1="33.2222" x2="49.0633" y2="17.833" gradientUnits="userSpaceOnUse">
<stop stop-color="#C49E4C"/>
<stop offset="0.355" stop-color="#FBEB90"/>
<stop offset="0.695" stop-color="#E2C871"/>
<stop offset="0.97" stop-color="#C7A14F"/>
</linearGradient>
<linearGradient id="paint1_linear_3111_1236" x1="24.7578" y1="33.2222" x2="49.0633" y2="17.833" gradientUnits="userSpaceOnUse">
<stop stop-color="#C49E4C"/>
<stop offset="0.355" stop-color="#FBEB90"/>
<stop offset="0.695" stop-color="#E2C871"/>
<stop offset="0.97" stop-color="#C7A14F"/>
</linearGradient>
</defs>
</svg>
