<svg width="25" height="25" viewBox="0 0 25 25" fill="none" xmlns="http://www.w3.org/2000/svg">
<g clip-path="url(#clip0_1141_283)">
<path d="M24.3208 0.27338C24.814 0.615177 25.0728 1.206 24.98 1.79682L21.855 22.1093C21.7818 22.5829 21.4937 22.998 21.0738 23.2324C20.6538 23.4667 20.1509 23.496 19.7066 23.3105L13.8667 20.8837L10.522 24.5019C10.0874 24.9755 9.40383 25.1318 8.80324 24.8974C8.20266 24.663 7.81203 24.082 7.81203 23.4374V19.3554C7.81203 19.1601 7.88527 18.9746 8.01711 18.833L16.2007 9.90229C16.4839 9.59467 16.4741 9.12104 16.1812 8.82807C15.8882 8.5351 15.4146 8.51557 15.107 8.79389L5.17531 17.6171L0.86379 15.4589C0.346212 15.2001 0.0141804 14.6826 -0.000467991 14.1064C-0.0151164 13.5302 0.287618 12.9931 0.785665 12.705L22.6607 0.205021C23.1831 -0.0928309 23.8277 -0.063534 24.3208 0.27338Z" fill="white"/>
</g>
<defs>
<clipPath id="clip0_1141_283">
<rect width="25" height="25" fill="white"/>
</clipPath>
</defs>
</svg>
