<svg width="40" height="54" viewBox="0 0 40 54" fill="none" xmlns="http://www.w3.org/2000/svg">
<path d="M35.6877 15.6875C36.9898 14.3854 36.9898 12.2708 35.6877 10.9688C34.3856 9.66667 32.271 9.66667 30.9689 10.9688L20.0002 21.9479L9.021 10.9792C7.71891 9.67708 5.60433 9.67708 4.30225 10.9792C3.00016 12.2812 3.00016 14.3958 4.30225 15.6979L15.2814 26.6667L4.31266 37.6458C3.01058 38.9479 3.01058 41.0625 4.31266 42.3646C5.61475 43.6667 7.72933 43.6667 9.03141 42.3646L20.0002 31.3854L30.9793 42.3542C32.2814 43.6563 34.396 43.6563 35.6981 42.3542C37.0002 41.0521 37.0002 38.9375 35.6981 37.6354L24.7189 26.6667L35.6877 15.6875Z" fill="url(#paint0_linear_1125_600)"/>
<defs>
<linearGradient id="paint0_linear_1125_600" x1="3.32568" y1="43.3412" x2="41.3178" y2="16.5852" gradientUnits="userSpaceOnUse">
<stop stop-color="#FD6F45"/>
<stop offset="1" stop-color="#EE4067"/>
</linearGradient>
</defs>
</svg>
