<svg width="188" height="222" viewBox="0 0 188 222" fill="none" xmlns="http://www.w3.org/2000/svg">
<path d="M109.053 152.704L128.806 118.469L168.331 118.458L188.103 152.683L168.35 186.918L128.825 186.929L109.053 152.704Z" fill="#000409"/>
<path d="M132.864 179.928L117.135 152.702L132.849 125.468L164.291 125.459L180.02 152.685L164.307 179.919L132.864 179.928Z" stroke="white" stroke-opacity="0.05" stroke-width="14"/>
<path d="M157.282 181.94L177.035 147.704L216.56 147.693L236.332 181.918L216.579 216.153L177.054 216.164L157.282 181.94Z" fill="#000409"/>
<path d="M181.093 209.163L165.364 181.938L181.078 154.703L212.52 154.695L228.249 181.92L212.536 209.154L181.093 209.163Z" stroke="white" stroke-opacity="0.05" stroke-width="14"/>
<path d="M109.02 37.2906L128.773 3.05526L168.299 3.04433L188.071 37.2688L168.318 71.5041L128.792 71.5151L109.02 37.2906Z" fill="#000409"/>
<path d="M132.832 64.5139L117.103 37.2884L132.817 10.0541L164.259 10.0454L179.988 37.271L164.274 64.5052L132.832 64.5139Z" stroke="white" stroke-opacity="0.05" stroke-width="14"/>
<path d="M157.249 66.526L177.002 32.2906L216.528 32.2797L236.3 66.5041L216.547 100.739L177.021 100.75L157.249 66.526Z" fill="#000409"/>
<path d="M181.061 93.7493L165.332 66.5237L181.046 39.2895L212.488 39.2808L228.217 66.5063L212.503 93.7406L181.061 93.7493Z" stroke="white" stroke-opacity="0.05" stroke-width="14"/>
<path d="M109.036 94.9977L128.79 60.7623L168.315 60.7514L188.087 94.9758L168.334 129.211L128.809 129.222L109.036 94.9977Z" fill="#000409"/>
<path d="M132.848 122.221L117.119 94.9954L132.833 67.7612L164.275 67.7525L180.004 94.978L164.29 122.212L132.848 122.221Z" stroke="white" stroke-opacity="0.05" stroke-width="14"/>
<path d="M157.265 124.233L177.019 89.9976L216.544 89.9867L236.316 124.211L216.563 158.447L177.038 158.457L157.265 124.233Z" fill="#000409"/>
<path d="M181.077 151.456L165.348 124.231L181.062 96.9965L212.504 96.9878L228.233 124.213L212.519 151.448L181.077 151.456Z" stroke="white" stroke-opacity="0.05" stroke-width="14"/>
<path d="M109.005 -20.4162L128.758 -54.6515L168.283 -54.6625L188.055 -20.438L168.302 13.7973L128.777 13.8083L109.005 -20.4162Z" fill="#000409"/>
<path d="M132.816 6.80716L117.088 -20.4184L132.801 -47.6526L164.244 -47.6613L179.972 -20.4358L164.259 6.79846L132.816 6.80716Z" stroke="white" stroke-opacity="0.05" stroke-width="14"/>
<path d="M157.233 8.8192L176.986 -25.4162L216.512 -25.4271L236.284 8.79732L216.531 43.0327L177.005 43.0436L157.233 8.8192Z" fill="#000409"/>
<path d="M181.045 36.0425L165.316 8.81696L181.03 -18.4173L212.472 -18.426L228.201 8.79956L212.487 36.0338L181.045 36.0425Z" stroke="white" stroke-opacity="0.05" stroke-width="14"/>
<path d="M0.0593733 95.7113L19.8125 61.4759L59.3378 61.465L79.1099 95.6894L59.3568 129.925L19.8315 129.936L0.0593733 95.7113Z" fill="#000409"/>
<path d="M23.871 122.935L8.14228 95.709L23.8559 68.4748L55.2983 68.4661L71.027 95.6916L55.3134 122.926L23.871 122.935Z" stroke="white" stroke-opacity="0.05" stroke-width="14"/>
<path d="M48.2879 124.947L68.0411 90.7113L107.566 90.7003L127.338 124.925L107.585 159.16L68.06 159.171L48.2879 124.947Z" fill="#000409"/>
<path d="M72.0995 152.17L56.3708 124.944L72.0844 97.7102L103.527 97.7014L119.256 124.927L103.542 152.161L72.0995 152.17Z" stroke="white" stroke-opacity="0.05" stroke-width="14"/>
<path d="M0.0271467 -19.7025L19.7803 -53.9379L59.3056 -53.9488L79.0777 -19.7244L59.3246 14.511L19.7993 14.5219L0.0271467 -19.7025Z" fill="#000409"/>
<path d="M23.8388 7.52078L8.11005 -19.7048L23.8237 -46.939L55.2661 -46.9477L70.9948 -19.7222L55.2812 7.51208L23.8388 7.52078Z" stroke="white" stroke-opacity="0.05" stroke-width="14"/>
<path d="M48.2562 9.53282L68.0093 -24.7025L107.535 -24.7135L127.307 9.51094L107.554 43.7463L68.0283 43.7573L48.2562 9.53282Z" fill="#000409"/>
<path d="M72.0678 36.7561L56.3391 9.53058L72.0527 -17.7037L103.495 -17.7124L119.224 9.51318L103.51 36.7474L72.0678 36.7561Z" stroke="white" stroke-opacity="0.05" stroke-width="14"/>
<path d="M0.04326 38.0045L19.7964 3.76913L59.3217 3.75819L79.0938 37.9826L59.3407 72.218L19.8154 72.2289L0.04326 38.0045Z" fill="#000409"/>
<path d="M23.8549 65.2278L8.12616 38.0023L23.8398 10.768L55.2822 10.7593L71.0109 37.9849L55.2973 65.2191L23.8549 65.2278Z" stroke="white" stroke-opacity="0.05" stroke-width="14"/>
<path d="M48.2723 67.2399L68.0254 33.0045L107.551 32.9935L127.323 67.218L107.57 101.453L68.0444 101.464L48.2723 67.2399Z" fill="#000409"/>
<path d="M72.0839 94.4632L56.3552 67.2376L72.0688 40.0034L103.511 39.9947L119.24 67.2202L103.526 94.4545L72.0839 94.4632Z" stroke="white" stroke-opacity="0.05" stroke-width="14"/>
</svg>
