<svg width="102" height="102" viewBox="0 0 102 102" fill="none" xmlns="http://www.w3.org/2000/svg">
<path d="M66.0743 15.5911C69.1738 19.2599 69.7561 22.0562 68.5353 28.3245L69.9767 29.631L26.33 77.5882L28.7183 70.1258C23.2825 61.2924 23.0704 56.0662 28.7362 46.1611C21.9089 38.2411 21.3519 34.1316 24.2249 27.1931C29.5745 22.7806 35.2028 22.9378 50.1625 28.1241C54.9292 24.4161 58.0185 23.7275 64.5626 25.9486C65.2325 23.1782 64.8912 21.4214 62.7887 17.864C63.2648 15.8828 63.9712 15.377 66.0743 15.5911Z" fill="white" fill-opacity="0.2"/>
<path d="M37.0231 29.2948C47.3581 31.6084 54.1786 34.5088 54.5092 37.6185C53.2925 40.5476 51.7587 41.8465 47.5473 43.5609C38.8398 46.9646 35.8393 46.5297 31.6969 44.2466C26.5726 39.3247 26.0314 36.1225 26.8696 30.0684C28.588 28.428 30.6464 28.1603 37.0231 29.2948Z" fill="#000409"/>
<path d="M46.9183 55.0686L53.538 47.7659L51.5471 46.4863C47.8815 48.3403 45.9247 49.0174 42.5314 49.8667C43.0543 51.1958 44.1246 52.3995 46.9183 55.0686Z" fill="#000409"/>
<path d="M39.776 62.9479C35.7616 59.3213 34.0721 56.755 31.7772 51.4961C29.1641 54.7959 28.6253 57.1935 30.04 62.8746C30.8276 65.0524 31.4417 66.3072 34.3757 68.9054L39.776 62.9479Z" fill="#000409"/>
<path d="M84.2165 32.1115C80.2726 29.3705 77.434 29.0536 71.3081 30.8581L69.872 29.5459L26.2288 77.5064L33.4338 74.4273C42.7389 79.009 47.962 78.729 57.2907 72.1573C65.8173 78.2101 69.961 78.3785 76.5988 74.8661C80.489 69.1255 79.8035 63.5369 73.2343 49.1308C76.4779 44.0367 76.8731 40.8964 74.0469 34.59C76.7421 33.6627 78.5232 33.8374 82.2624 35.5963C84.1901 34.9361 84.6273 34.1853 84.2165 32.1115Z" fill="white" fill-opacity="0.2"/>
<path d="M73.2502 62.1785C69.9757 52.1067 66.4471 45.589 63.3201 45.5521C60.5183 47.0386 59.3693 48.6878 58.0583 53.0416C55.488 62.0304 56.2029 64.9768 58.8652 68.8863C64.2469 73.5254 67.4858 73.7633 73.4343 72.3598C74.9059 70.4949 74.979 68.4204 73.2502 62.1785Z" fill="#000409"/>
<path d="M46.6606 54.7493L53.3089 47.4726L54.7699 49.3344C53.2686 53.1581 52.7784 55.1698 52.2517 58.6279C50.8794 58.2322 49.5804 57.2799 46.6606 54.7493Z" fill="#000409"/>
<path d="M39.4874 62.6005C43.4752 66.2563 46.1889 67.6972 51.6402 69.4877C48.6006 72.3993 46.2642 73.1611 40.4753 72.2865C38.2331 71.7071 36.9262 71.2136 34.0638 68.5367L39.4874 62.6005Z" fill="#000409"/>
</svg>
