<svg width="176" height="117" viewBox="0 0 176 117" fill="none" xmlns="http://www.w3.org/2000/svg">
<path d="M1.16897 71.9183C26.1564 80.7023 40.8237 82.8392 68.6448 79.6328M68.6448 79.6328C90.6201 72.2041 100.288 66.8719 113.149 55.4327C124.53 38.8327 128.005 30.0412 117.221 17.3845C107.505 13.6413 100.747 15.0721 85.387 26.5265C79.131 12.0884 75.4267 5.7211 67.9039 2.01929C56.3959 2.56327 51.6926 5.56234 47.8529 17.9567C43.199 37.8148 48.4594 51.549 68.6448 79.6328ZM68.6448 79.6328C100.08 107.646 116.366 118.196 139.33 113.723C159.314 110.737 167.569 104.261 173.539 78.4537" stroke="white" stroke-opacity="0.2" stroke-width="4" stroke-dasharray="12 12"/>
</svg>
